<svg width="1432" height="240" viewBox="0 0 1432 240" fill="none" xmlns="http://www.w3.org/2000/svg">
<path fill-rule="evenodd" clip-rule="evenodd" d="M525 0C140.057 0 1 189.253 1 189.253V239.317H1921V88.8171C1921 88.8171 1708.5 229.317 1415.5 229.317C1231.09 229.317 1105.28 172.964 978.387 116.129C849.309 58.3138 719.117 0 525 0Z" fill="#ED6B3B"/>
<path fill-rule="evenodd" clip-rule="evenodd" d="M511 37.3174C191.5 37.3174 1 189.604 1 189.604V239.317H1921.04L1921 115.317C1921 115.317 1673 231.817 1397 231.817C1264.05 231.817 1127.73 186.684 986.427 139.9C834.396 89.564 676.593 37.3174 511 37.3174Z" fill="#EED1A8"/>
<path fill-rule="evenodd" clip-rule="evenodd" d="M516 84.3174C196.5 84.3174 1 189.698 1 189.698V239.317H1922V139.317C1922 139.317 1675 227.393 1399 227.393C1266.05 227.393 1130.43 194.193 989.844 159.778C838.589 122.751 681.593 84.3174 516 84.3174Z" fill="#038C99"/>
<path fill-rule="evenodd" clip-rule="evenodd" d="M515 118.317C195.5 118.317 0 190.032 0 190.032V239.317H1921V164.94C1921 164.94 1674 226.817 1398 226.817C1265.05 226.817 1129.43 201.64 988.845 175.542C837.59 147.462 680.593 118.317 515 118.317Z" fill="#1E294C"/>
</svg>
