<svg width="1922" height="159" viewBox="0 0 1922 159" fill="none" xmlns="http://www.w3.org/2000/svg">
<path fill-rule="evenodd" clip-rule="evenodd" d="M525.273 0C140.129 0 1 125.142 1 125.142V158.317H1922V58.7296C1922 58.7296 1709.39 151.634 1416.24 151.634C1231.73 151.634 1105.85 114.371 978.896 76.7894C849.751 38.5596 719.491 0 525.273 0Z" fill="#ED6B3B"/>
<path fill-rule="evenodd" clip-rule="evenodd" d="M511.254 24.6875C191.595 24.6875 1 125.431 1 125.431V158.318H1922L1921.96 76.2874C1921.96 76.2874 1673.83 153.357 1397.7 153.357C1264.68 153.357 1128.29 123.499 986.917 92.5498C834.81 59.2507 676.929 24.6875 511.254 24.6875Z" fill="#EED1A8"/>
<path fill-rule="evenodd" clip-rule="evenodd" d="M516 55.7793C196.5 55.7793 1 125.493 1 125.493V158.317H1922V92.1639C1922 92.1639 1675 150.429 1399 150.429C1266.05 150.429 1130.43 128.466 989.844 105.699C838.589 81.2043 681.593 55.7793 516 55.7793Z" fill="#038C99"/>
<path fill-rule="evenodd" clip-rule="evenodd" d="M515.268 78C195.602 78 0 125.478 0 125.478V158.317H1922V108.866C1922 108.866 1674.87 149.831 1398.73 149.831C1265.71 149.831 1130.01 133.163 989.359 115.885C838.025 97.2954 680.947 78 515.268 78Z" fill="#1E294C"/>
</svg>
